<svg width="24" height="32" viewBox="0 0 24 32" fill="none" xmlns="http://www.w3.org/2000/svg">
<g id="java">
<g id="orange">
<path d="M12.0493 8.44062C18.6374 3.32607 15.2562 0 15.2562 0C15.7594 5.28738 9.81253 6.53583 8.21847 10.1692C7.13073 12.6485 8.9633 14.8193 12.0471 17.5554C11.7744 16.9494 11.354 16.3606 10.9283 15.7645C9.47649 13.7313 7.96405 11.6132 12.0493 8.44062Z" fill="#E76F00"/>
<path d="M13.101 18.677C13.101 18.677 15.0831 17.0779 13.5134 15.3008C8.19263 9.27186 19.3329 6.53583 19.3329 6.53583C12.5313 9.8125 13.5467 11.7574 15.2562 14.1202C17.0866 16.6538 13.101 18.677 13.101 18.677Z" fill="#E76F00"/>
</g>
<g id="blue">
<path d="M18.937 23.4456C25.0423 20.3258 22.2195 17.3278 20.2492 17.7317C19.7662 17.8305 19.5509 17.9162 19.5509 17.9162C19.5509 17.9162 19.7302 17.64 20.0726 17.5204C23.9705 16.1729 26.9682 21.4949 18.8143 23.6028C18.8143 23.6029 18.9088 23.5198 18.937 23.4456Z" fill="#5382A1"/>
<path d="M6.23304 19.4969C2.41312 18.9953 8.32745 17.6139 8.32745 17.6139C8.32745 17.6139 6.03069 17.4616 3.20592 18.8043C-0.134228 20.3932 11.4681 21.1158 17.474 19.5625C18.0984 19.1432 18.9614 18.7798 18.9614 18.7798C18.9614 18.7798 16.5037 19.2114 14.0561 19.4145C11.0612 19.6612 7.84593 19.7093 6.23304 19.4969Z" fill="#5382A1"/>
<path d="M7.68635 22.4758C5.55624 22.2592 6.951 21.2439 6.951 21.2439C1.43898 23.0429 10.0178 25.083 17.7199 22.8682C16.9012 22.5844 16.3806 22.0653 16.3806 22.0653C12.6163 22.7781 10.441 22.7553 7.68635 22.4758Z" fill="#5382A1"/>
<path d="M8.61449 25.6991C6.48595 25.4585 7.7295 24.7474 7.7295 24.7474C2.72594 26.1222 10.7729 28.9625 17.1433 26.2777C16.0999 25.8787 15.3528 25.4181 15.3528 25.4181C12.5111 25.9469 11.1931 25.9884 8.61449 25.6991Z" fill="#5382A1"/>
<path d="M21.9387 27.3388C21.9387 27.3388 22.8589 28.0844 20.9252 28.6612C17.2481 29.7566 5.62093 30.0874 2.39094 28.7049C1.22984 28.2082 3.40723 27.5189 4.09215 27.3742C4.80646 27.2219 5.21466 27.2503 5.21466 27.2503C3.9234 26.3558 -3.13151 29.0067 1.63111 29.7659C14.6195 31.8372 25.3077 28.8331 21.9387 27.3388Z" fill="#5382A1"/>
<path d="M24 28.9679C23.7869 31.6947 14.7877 32.2683 8.92741 31.8994C5.10432 31.6583 4.33812 31.0558 4.32691 31.047C7.98588 31.6402 14.1549 31.7482 19.1568 30.8225C23.5903 30.0016 24 28.9679 24 28.9679Z" fill="#5382A1"/>
</g>
</g>
</svg>
