<svg width="28" height="28" viewBox="0 0 28 28" fill="none" xmlns="http://www.w3.org/2000/svg">
<g id="joomla">
<path id="red" d="M24.6773 21.0044C25.4221 18.6503 24.8357 16.1981 23.3074 14.6239C21.4981 12.7602 17.8196 9 17.8196 9L15 11.9044C15 11.9044 18.9241 15.8562 20.5176 17.4976C21.2669 18.2694 21.2669 19.5208 20.5176 20.2926C19.7781 21.0543 18.5853 21.0643 17.834 20.3227L15.0439 23.1966C16.6625 24.8407 18.9782 25.3189 21.0024 24.6313C21.0715 26.5034 22.611 28 24.5 28C26.433 28 28 26.433 28 24.5C28 22.6265 26.5279 21.0968 24.6773 21.0044Z" fill="#F44321"/>
<path id="yellow" d="M21.0044 3.32272C18.6503 2.57793 16.1981 3.16434 14.6239 4.69259C12.7602 6.50188 9 10.1804 9 10.1804L11.9044 13C11.9044 13 15.8562 9.07587 17.4976 7.48241C18.2694 6.7331 19.5208 6.7331 20.2926 7.48241C21.0543 8.22185 21.0643 9.41469 20.3227 10.166L23.1966 12.9561C24.8407 11.3375 25.3189 9.02176 24.6313 6.99758C26.5034 6.92853 28 5.38904 28 3.50001C28 1.56701 26.433 6.86737e-06 24.5 6.95187e-06C22.6265 7.03376e-06 21.0968 1.4721 21.0044 3.32272Z" fill="#FBB854"/>
<path id="green" d="M3.32271 6.99558C2.57793 9.34973 3.16434 11.8019 4.69259 13.3761C6.50188 15.2398 10.1804 19 10.1804 19L13 16.0956C13 16.0956 9.07587 12.1438 7.48241 10.5024C6.7331 9.73059 6.7331 8.47919 7.48241 7.7074C8.22185 6.94571 9.41469 6.9357 10.166 7.67734L12.9561 4.80344C11.3375 3.15927 9.02176 2.68106 6.99758 3.36871C6.92853 1.49655 5.38904 6.65371e-07 3.50001 8.30516e-07C1.56701 9.99504e-07 6.10535e-06 1.56702 6.27434e-06 3.5C6.43813e-06 5.37354 1.4721 6.90323 3.32271 6.99558Z" fill="#7AC143"/>
<path id="blue" d="M6.99557 24.6773C9.34973 25.4221 11.8019 24.8357 13.3761 23.3074C15.2398 21.4981 19 17.8196 19 17.8196L16.0956 15C16.0956 15 12.1438 18.9241 10.5024 20.5176C9.73059 21.2669 8.47919 21.2669 7.7074 20.5176C6.94571 19.7781 6.9357 18.5853 7.67734 17.834L4.80344 15.0439C3.15927 16.6625 2.68106 18.9782 3.36871 21.0024C1.49655 21.0715 -3.32685e-07 22.611 -4.15258e-07 24.5C-4.99752e-07 26.433 1.56702 28 3.5 28C5.37353 28 6.90323 26.5279 6.99557 24.6773Z" fill="#5091CD"/>
</g>
</svg>
