<svg width="28" height="28" viewBox="0 0 28 28" fill="none" xmlns="http://www.w3.org/2000/svg">
<g id="python">
<path id="blue" fill-rule="evenodd" clip-rule="evenodd" d="M11.0164 0C8.81932 0 7.03825 1.72453 7.03825 3.85185V6.51852H13.9235V7.25926H3.97814C1.78107 7.25926 0 8.98379 0 11.1111L4.34725e-07 16.8889C4.34725e-07 19.0162 1.78107 20.7407 3.97814 20.7407H6.27322V17.4815C6.27322 15.3542 8.0543 13.6296 10.2514 13.6296H17.5956C19.4547 13.6296 20.9617 12.1704 20.9617 10.3704V3.85185C20.9617 1.72453 19.1807 0 16.9836 0H11.0164ZM10.0984 4.74074C10.8589 4.74074 11.4754 4.14378 11.4754 3.40741C11.4754 2.67103 10.8589 2.07407 10.0984 2.07407C9.33783 2.07407 8.72131 2.67103 8.72131 3.40741C8.72131 4.14378 9.33783 4.74074 10.0984 4.74074Z" fill="url(#paint0_linear_244_2786)"/>
<path id="yellow" fill-rule="evenodd" clip-rule="evenodd" d="M16.9836 28C19.1807 28 20.9618 26.2755 20.9618 24.1482V21.4815L14.0765 21.4815L14.0765 20.7408L24.0219 20.7408C26.2189 20.7408 28 19.0162 28 16.8889V11.1111C28 8.98381 26.2189 7.25928 24.0219 7.25928L21.7268 7.25928V10.5185C21.7268 12.6459 19.9457 14.3704 17.7486 14.3704L10.4044 14.3704C8.54533 14.3704 7.03826 15.8296 7.03826 17.6296L7.03826 24.1482C7.03826 26.2755 8.81933 28 11.0164 28H16.9836ZM17.9016 23.2593C17.1411 23.2593 16.5246 23.8562 16.5246 24.5926C16.5246 25.329 17.1411 25.9259 17.9016 25.9259C18.6622 25.9259 19.2787 25.329 19.2787 24.5926C19.2787 23.8562 18.6622 23.2593 17.9016 23.2593Z" fill="url(#paint1_linear_244_2786)"/>
</g>
<defs>
<linearGradient id="paint0_linear_244_2786" x1="10.4809" y1="0" x2="10.4809" y2="20.7407" gradientUnits="userSpaceOnUse">
<stop stop-color="#327EBD"/>
<stop offset="1" stop-color="#1565A7"/>
</linearGradient>
<linearGradient id="paint1_linear_244_2786" x1="17.5191" y1="7.25928" x2="17.5191" y2="28" gradientUnits="userSpaceOnUse">
<stop stop-color="#FFDA4B"/>
<stop offset="1" stop-color="#F9C600"/>
</linearGradient>
</defs>
</svg>
