<svg width="24" height="24" viewBox="0 0 24 24" fill="none" xmlns="http://www.w3.org/2000/svg">
<g id="ruby">
<path id="vector" fill-rule="evenodd" clip-rule="evenodd" d="M18.5938 15.8408L4.89133 23.9999L22.6335 22.7926L24 4.85266L18.5938 15.8408Z" fill="url(#paint0_linear_244_8)"/>
<path id="vector_2" fill-rule="evenodd" clip-rule="evenodd" d="M22.6626 22.7804L21.1376 12.2258L16.9839 17.726L22.6626 22.7804Z" fill="url(#paint1_linear_244_8)"/>
<path id="vector_3" fill-rule="evenodd" clip-rule="evenodd" d="M22.6832 22.7804L11.5112 21.901L4.95069 23.977L22.6832 22.7804Z" fill="url(#paint2_linear_244_8)"/>
<path id="vector_4" fill-rule="evenodd" clip-rule="evenodd" d="M4.96643 23.9793L7.75733 14.8108L1.61591 16.1276L4.96643 23.9793Z" fill="url(#paint3_linear_244_8)"/>
<path id="vector_5" fill-rule="evenodd" clip-rule="evenodd" d="M23.4174 7.81171L16.4704 2.12207L14.5359 8.39355L23.4174 7.81171Z" fill="url(#paint4_linear_244_8)"/>
<path id="vector_6" fill-rule="evenodd" clip-rule="evenodd" d="M20.1686 0.0934778L16.0828 2.35767L13.5051 0.0631104L20.1686 0.0934778Z" fill="url(#paint5_linear_244_8)"/>
<path id="vector_7" fill-rule="evenodd" clip-rule="evenodd" d="M0 19.2031L1.7116 16.0729L0.327058 12.3438L0 19.2031Z" fill="url(#paint6_linear_244_8)"/>
<path id="vector_8" fill-rule="evenodd" clip-rule="evenodd" d="M0.235001 12.2259L1.62803 16.1883L7.68102 14.8265L14.5916 8.38615L16.5419 2.17431L13.471 0L8.25022 1.95931C6.60536 3.49347 3.41352 6.529 3.29844 6.58609C3.18458 6.6444 1.19074 10.4233 0.235001 12.2259Z" fill="white"/>
<path id="vector_9" d="M7.72224 14.788L14.5916 8.38614L14.5947 8.37634L16.9828 17.7564L7.72224 14.788Z" fill="url(#paint7_linear_244_8)"/>
<path id="vector_10" fill-rule="evenodd" clip-rule="evenodd" d="M5.12633 5.10786C8.69127 1.56337 13.287 -0.530765 15.0507 1.25363C16.8133 3.03802 14.9441 7.37449 11.3792 10.9178C7.81426 14.461 3.27543 16.6706 1.51295 14.8862C-0.250743 13.103 1.5614 8.65114 5.12633 5.10786Z" fill="url(#paint8_linear_244_8)"/>
<path id="vector_11" fill-rule="evenodd" clip-rule="evenodd" d="M4.96644 23.9758L7.73553 14.7781L16.9319 17.7407C13.6068 20.8674 9.90865 23.5105 4.96644 23.9758Z" fill="url(#paint9_linear_244_8)"/>
<path id="vector_12" fill-rule="evenodd" clip-rule="evenodd" d="M14.6037 8.36804L16.9646 17.7455C19.7422 14.8169 22.2351 11.6684 23.456 7.77405L14.6037 8.36804Z" fill="url(#paint10_linear_244_8)"/>
<path id="vector_13" fill-rule="evenodd" clip-rule="evenodd" d="M23.4319 7.82144C24.3767 4.96204 24.5947 0.860005 20.1394 0.0983887L16.4836 2.12329L23.4319 7.82144Z" fill="url(#paint11_linear_244_8)"/>
<path id="vector_14" fill-rule="evenodd" clip-rule="evenodd" d="M0 19.1618C0.130823 23.8811 3.52617 23.9514 4.97249 23.9928L1.63166 16.1688L0 19.1618Z" fill="#9E1209"/>
<path id="vector_15" fill-rule="evenodd" clip-rule="evenodd" d="M14.617 8.3826C16.7513 9.69811 21.0528 12.3401 21.1401 12.3887C21.2756 12.4652 22.9946 9.4819 23.3846 7.7959L14.617 8.3826Z" fill="url(#paint12_radial_244_8)"/>
<path id="vector_16" fill-rule="evenodd" clip-rule="evenodd" d="M7.7319 14.7781L11.4337 21.9399C13.6226 20.7495 15.3366 19.2992 16.9065 17.7456L7.7319 14.7781Z" fill="url(#paint13_radial_244_8)"/>
<path id="vector_17" fill-rule="evenodd" clip-rule="evenodd" d="M1.61712 16.1786L1.09261 22.4416C2.08227 23.7972 3.4438 23.915 4.87195 23.8093C3.83869 21.2305 1.77459 16.0741 1.61712 16.1786Z" fill="url(#paint14_linear_244_8)"/>
<path id="vector_18" fill-rule="evenodd" clip-rule="evenodd" d="M16.4619 2.13906L23.8159 3.17398C23.4234 1.5062 22.2181 0.429977 20.1637 0.0935059L16.4619 2.13906Z" fill="url(#paint15_linear_244_8)"/>
</g>
<defs>
<linearGradient id="paint0_linear_244_8" x1="21.086" y1="26.1826" x2="16.0016" y2="17.2308" gradientUnits="userSpaceOnUse">
<stop stop-color="#FB7655"/>
<stop offset="0.41" stop-color="#E42B1E"/>
<stop offset="0.99" stop-color="#990000"/>
<stop offset="1" stop-color="#990000"/>
</linearGradient>
<linearGradient id="paint1_linear_244_8" x1="23.6081" y1="18.6525" x2="17.0718" y2="14.2784" gradientUnits="userSpaceOnUse">
<stop stop-color="#871101"/>
<stop offset="0.99" stop-color="#911209"/>
<stop offset="1" stop-color="#911209"/>
</linearGradient>
<linearGradient id="paint2_linear_244_8" x1="18.3874" y1="26.4543" x2="11.8512" y2="22.0804" gradientUnits="userSpaceOnUse">
<stop stop-color="#871101"/>
<stop offset="0.99" stop-color="#911209"/>
<stop offset="1" stop-color="#911209"/>
</linearGradient>
<linearGradient id="paint3_linear_244_8" x1="4.68738" y1="15.4741" x2="5.70442" y2="22.0655" gradientUnits="userSpaceOnUse">
<stop stop-color="white"/>
<stop offset="0.23" stop-color="#E57252"/>
<stop offset="0.46" stop-color="#DE3B20"/>
<stop offset="0.99" stop-color="#A60003"/>
<stop offset="1" stop-color="#A60003"/>
</linearGradient>
<linearGradient id="paint4_linear_244_8" x1="17.819" y1="3.10002" x2="18.9406" y2="7.92041" gradientUnits="userSpaceOnUse">
<stop stop-color="white"/>
<stop offset="0.18" stop-color="#E46342"/>
<stop offset="0.4" stop-color="#C82410"/>
<stop offset="0.99" stop-color="#A80D00"/>
<stop offset="1" stop-color="#A80D00"/>
</linearGradient>
<linearGradient id="paint5_linear_244_8" x1="14.4119" y1="1.40189" x2="19.2253" y2="-0.998129" gradientUnits="userSpaceOnUse">
<stop stop-color="white"/>
<stop offset="0.54" stop-color="#C81F11"/>
<stop offset="0.99" stop-color="#BF0905"/>
<stop offset="1" stop-color="#BF0905"/>
</linearGradient>
<linearGradient id="paint6_linear_244_8" x1="0.472817" y1="13.7935" x2="0.870729" y2="17.7663" gradientUnits="userSpaceOnUse">
<stop stop-color="white"/>
<stop offset="0.31" stop-color="#DE4024"/>
<stop offset="0.99" stop-color="#BF190B"/>
<stop offset="1" stop-color="#BF190B"/>
</linearGradient>
<linearGradient id="paint7_linear_244_8" x1="11.6448" y1="9.3186" x2="12.0196" y2="16.0463" gradientUnits="userSpaceOnUse">
<stop stop-color="white"/>
<stop offset="0.23" stop-color="#E4714E"/>
<stop offset="0.56" stop-color="#BE1A0D"/>
<stop offset="0.99" stop-color="#A80D00"/>
<stop offset="1" stop-color="#A80D00"/>
</linearGradient>
<linearGradient id="paint8_linear_244_8" x1="-2.2477" y1="18.8406" x2="16.4079" y2="-0.289346" gradientUnits="userSpaceOnUse">
<stop stop-color="#BD0012"/>
<stop offset="0.07" stop-color="white"/>
<stop offset="0.17" stop-color="white"/>
<stop offset="0.27" stop-color="#C82F1C"/>
<stop offset="0.33" stop-color="#820C01"/>
<stop offset="0.46" stop-color="#A31601"/>
<stop offset="0.72" stop-color="#B31301"/>
<stop offset="0.99" stop-color="#E82609"/>
<stop offset="1" stop-color="#E82609"/>
</linearGradient>
<linearGradient id="paint9_linear_244_8" x1="12.0012" y1="20.7754" x2="6.39616" y2="19.3959" gradientUnits="userSpaceOnUse">
<stop stop-color="#8C0C01"/>
<stop offset="0.54" stop-color="#990C00"/>
<stop offset="0.99" stop-color="#A80D0E"/>
<stop offset="1" stop-color="#A80D0E"/>
</linearGradient>
<linearGradient id="paint10_linear_244_8" x1="21.6253" y1="14.0315" x2="16.6353" y2="9.5715" gradientUnits="userSpaceOnUse">
<stop stop-color="#7E110B"/>
<stop offset="0.99" stop-color="#9E0C00"/>
<stop offset="1" stop-color="#9E0C00"/>
</linearGradient>
<linearGradient id="paint11_linear_244_8" x1="23.4541" y1="5.8229" x2="20.9673" y2="3.17165" gradientUnits="userSpaceOnUse">
<stop stop-color="#79130D"/>
<stop offset="0.99" stop-color="#9E120B"/>
<stop offset="1" stop-color="#9E120B"/>
</linearGradient>
<radialGradient id="paint12_radial_244_8" cx="0" cy="0" r="1" gradientUnits="userSpaceOnUse" gradientTransform="translate(17.4227 9.64323) scale(6.09995 6.11692)">
<stop stop-color="#A80D00"/>
<stop offset="0.99" stop-color="#7E0E08"/>
<stop offset="1" stop-color="#7E0E08"/>
</radialGradient>
<radialGradient id="paint13_radial_244_8" cx="0" cy="0" r="1" gradientUnits="userSpaceOnUse" gradientTransform="translate(8.97499 17.7044) scale(8.10906 8.13164)">
<stop stop-color="#A30C00"/>
<stop offset="0.99" stop-color="#800E08"/>
<stop offset="1" stop-color="#800E08"/>
</radialGradient>
<linearGradient id="paint14_linear_244_8" x1="3.23059" y1="23.9704" x2="1.19959" y2="17.099" gradientUnits="userSpaceOnUse">
<stop stop-color="#8B2114"/>
<stop offset="0.43" stop-color="#9E100A"/>
<stop offset="0.99" stop-color="#B3100C"/>
<stop offset="1" stop-color="#B3100C"/>
</linearGradient>
<linearGradient id="paint15_linear_244_8" x1="18.7321" y1="1.19012" x2="23.2663" y2="3.18603" gradientUnits="userSpaceOnUse">
<stop stop-color="#B31000"/>
<stop offset="0.44" stop-color="#910F08"/>
<stop offset="0.99" stop-color="#791C12"/>
<stop offset="1" stop-color="#791C12"/>
</linearGradient>
</defs>
</svg>
