<svg width="28" height="28" viewBox="0 0 28 28" fill="none" xmlns="http://www.w3.org/2000/svg">
<g id="vs_code">
<path id="vector" d="M21.0018 1.11679C21.0018 0.237831 20.0176 0.237821 19.5803 0.347691C20.1926 -0.135738 20.9106 -0.0185322 21.1658 0.127962L27.0791 3.02747C27.6426 3.30375 28 3.8786 28 4.50857V23.5831C28 24.2215 27.6331 24.8025 27.0582 25.0743L21.4938 27.7054C21.1111 27.8701 20.2801 28.2767 19.5803 27.7053C20.455 27.8702 20.9289 27.2476 21.0018 26.8264V1.11679Z" fill="url(#paint0_linear_244_366)"/>
<path id="vector_2" d="M19.6512 0.331781C20.1154 0.240045 21.0018 0.282587 21.0018 1.11673V7.68241L3.07359 21.2452C2.76022 21.4823 2.3192 21.4429 2.05229 21.1541L0.204532 19.1547C-0.0849358 18.8415 -0.0646824 18.3512 0.249624 18.0631L19.5802 0.347627L19.6512 0.331781Z" fill="url(#paint1_linear_244_366)"/>
<path id="vector_3" d="M21.0018 20.3705L3.07359 6.80777C2.76022 6.5707 2.3192 6.61003 2.05229 6.89885L0.204532 8.89826C-0.0849358 9.21148 -0.0646824 9.70177 0.249624 9.98982L19.5802 27.7053C20.455 27.8701 20.9289 27.2475 21.0018 26.8264V20.3705Z" fill="url(#paint2_linear_244_366)"/>
</g>
<defs>
<linearGradient id="paint0_linear_244_366" x1="23.7901" y1="0" x2="23.7901" y2="28" gradientUnits="userSpaceOnUse">
<stop stop-color="#32B5F1"/>
<stop offset="1" stop-color="#2B9FED"/>
</linearGradient>
<linearGradient id="paint1_linear_244_366" x1="21.0018" y1="3.53386" x2="1.0217" y2="20.305" gradientUnits="userSpaceOnUse">
<stop stop-color="#0F6FB3"/>
<stop offset="0.270551" stop-color="#1279B7"/>
<stop offset="0.421376" stop-color="#1176B5"/>
<stop offset="0.618197" stop-color="#0E69AC"/>
<stop offset="0.855344" stop-color="#0F70AF"/>
<stop offset="1" stop-color="#0F6DAD"/>
</linearGradient>
<linearGradient id="paint2_linear_244_366" x1="1.15522" y1="7.98364" x2="21.0791" y2="24.4806" gradientUnits="userSpaceOnUse">
<stop stop-color="#1791D2"/>
<stop offset="1" stop-color="#1173C5"/>
</linearGradient>
</defs>
</svg>
