<svg width="321" height="68" viewBox="0 0 321 68" fill="none" xmlns="http://www.w3.org/2000/svg">
<path d="M16 48.4689C16.3358 49.9642 17.5447 52.0577 19.6938 48.4689C22.3802 43.9829 23.7235 39.4968 25.9901 41.7399C27.8035 43.5343 34.9169 49.355 38.2469 52.0411L34.637 36.4231L50 48.4689L47.7333 36.4231C54.0856 44.7582 67.0588 57.4908 68.1333 41.7399C74.9333 52.0411 80.3901 64.17 79.4667 48.4689C78.5432 32.7678 66.3704 14.4084 62.2568 12.1653C58.1432 9.92234 62.6765 30.9402 84 48.4689" stroke="#EC5051" stroke-width="5" stroke-linejoin="round"/>
<path d="M98.168 43H93.296V26.632H98.168V32.536H112.328V26.632H117.2V43H112.328V36.688H98.168V43ZM119.492 35.848V30.76H124.004V35.152C124.004 37.168 124.988 37.912 128.372 37.912C130.388 37.912 132.548 37.696 134.852 37.264V30.76H139.388V40.288C139.388 45.856 136.268 47.68 129.38 47.68C126.284 47.68 122.828 47.224 120.404 46.552L121.196 43.096C124.028 43.792 126.812 44.176 129.692 44.176C133.844 44.176 135.26 43.192 135.068 40.504L135.02 40.384C132.716 41.056 130.004 41.632 127.292 41.632C121.58 41.632 119.492 39.88 119.492 35.848ZM146.512 47.44H141.976V30.76H145.96L146.272 32.44C148.648 31.384 151.504 30.52 154.456 30.52C158.92 30.52 161.704 32.248 161.704 36.784C161.704 41.536 158.248 43.24 152.944 43.24C150.664 43.24 148.432 42.952 146.512 42.64V47.44ZM153.616 34.264C151.696 34.264 149.176 34.72 146.512 35.464V39.184C148.6 39.4 151.096 39.592 153.16 39.592C155.872 39.592 157.168 38.824 157.168 36.856C157.168 35.008 156.232 34.264 153.616 34.264ZM173.731 39.76C177.379 39.76 180.019 39.376 181.483 39.136L182.395 42.4C180.115 42.976 176.467 43.336 173.323 43.336C166.363 43.336 163.339 41.44 163.339 36.88C163.339 32.344 166.747 30.448 173.035 30.448C178.867 30.448 182.683 31.96 182.683 35.944C182.683 36.52 182.611 37.6 182.563 37.912H167.827C168.235 39.424 169.771 39.76 173.731 39.76ZM172.867 33.472C169.507 33.472 168.163 33.976 167.803 35.56H178.195C177.931 34.096 176.731 33.472 172.867 33.472ZM184.796 43V30.76H188.78L189.14 32.848C191.636 31.552 194.756 30.448 198.14 30.448V34.528C194.708 34.528 192.14 34.936 189.332 35.944V43H184.796ZM200.007 43V30.784H203.991L204.255 32.128C206.391 31.192 208.839 30.448 211.359 30.448C213.927 30.448 215.799 31.048 216.903 32.416C219.255 31.36 222.015 30.448 224.847 30.448C229.119 30.448 231.471 32.128 231.471 36.208V43H226.935V36.976C226.935 35.104 225.735 34.216 223.359 34.216C221.727 34.216 219.999 34.576 217.959 35.2C217.983 35.512 218.007 35.848 218.007 36.208V43H213.471V36.976C213.471 35.104 212.271 34.216 209.895 34.216C208.263 34.216 206.559 34.6 204.543 35.224V43H200.007ZM243.692 39.76C247.34 39.76 249.98 39.376 251.444 39.136L252.356 42.4C250.076 42.976 246.428 43.336 243.284 43.336C236.324 43.336 233.3 41.44 233.3 36.88C233.3 32.344 236.708 30.448 242.996 30.448C248.828 30.448 252.644 31.96 252.644 35.944C252.644 36.52 252.572 37.6 252.524 37.912H237.788C238.196 39.424 239.732 39.76 243.692 39.76ZM242.828 33.472C239.468 33.472 238.124 33.976 237.764 35.56H248.156C247.892 34.096 246.692 33.472 242.828 33.472ZM269.469 25H274.005V43H270.021L269.709 41.32C267.381 42.352 264.693 43.24 261.861 43.24C257.133 43.24 254.277 41.632 254.277 37C254.277 32.152 257.901 30.52 263.205 30.52C265.557 30.52 267.669 30.784 269.469 31.12V25ZM258.813 36.928C258.813 38.776 259.845 39.496 262.581 39.496C264.621 39.496 266.973 39.064 269.469 38.344V34.576C267.429 34.36 264.981 34.168 262.917 34.168C260.205 34.168 258.813 34.96 258.813 36.928ZM281.137 25.456V29.2H276.601V25.456H281.137ZM276.601 43V30.76H281.137V43H276.601ZM302.974 31.312L302.95 31.336H302.974V43H298.99L298.654 41.368C296.254 42.4 293.422 43.24 290.494 43.24C286.15 43.24 283.246 41.56 283.246 37C283.246 32.08 287.014 30.52 292.51 30.52C296.734 30.52 300.262 30.952 302.974 31.312ZM287.782 36.832C287.782 38.776 288.766 39.496 291.382 39.496C293.47 39.496 295.87 39.04 298.438 38.296V34.48C296.422 34.288 294.07 34.168 292.054 34.168C289.222 34.168 287.782 34.912 287.782 36.832Z" fill="#EC5051"/>
</svg>
